<svg xmlns="http://www.w3.org/2000/svg" viewBox="0 0 512 512" fill="none">
  <defs>
    <linearGradient id="bg" x1="64" y1="32" x2="448" y2="480" gradientUnits="userSpaceOnUse">
      <stop stop-color="#16132e"/>
      <stop offset="1" stop-color="#0a0e1f"/>
    </linearGradient>
    <linearGradient id="shield" x1="156" y1="96" x2="356" y2="416" gradientUnits="userSpaceOnUse">
      <stop stop-color="#c4ceff"/>
      <stop offset="0.4" stop-color="#8a9cfe"/>
      <stop offset="1" stop-color="#5b6fd6"/>
    </linearGradient>
    <linearGradient id="arc" x1="168" y1="312" x2="344" y2="360" gradientUnits="userSpaceOnUse">
      <stop stop-color="#f8fafc"/>
      <stop offset="1" stop-color="#dbeafe"/>
    </linearGradient>
    <radialGradient id="halo" cx="0" cy="0" r="1" gradientUnits="userSpaceOnUse" gradientTransform="translate(256 230) rotate(90) scale(170 150)">
      <stop stop-color="#8a9cfe" stop-opacity="0.4"/>
      <stop offset="1" stop-color="#6366f1" stop-opacity="0"/>
    </radialGradient>
  </defs>

  <rect width="512" height="512" rx="112" fill="url(#bg)"/>

  <circle cx="256" cy="256" r="188" stroke="#8a9cfe" stroke-opacity="0.14" stroke-width="4"/>
  <circle cx="256" cy="256" r="132" stroke="#8a9cfe" stroke-opacity="0.2" stroke-width="4"/>

  <ellipse cx="256" cy="236" rx="160" ry="140" fill="url(#halo)"/>

  <path
    d="M256 108c-68 0-112 48-112 112 0 42 26 80 64 100l48 22 48-22c38-20 64-58 64-100 0-64-44-112-112-112z"
    fill="url(#shield)"
  />

  <path
    d="M184 328c32-40 72-58 120-58s88 18 120 58"
    stroke="url(#arc)"
    stroke-width="20"
    stroke-linecap="round"
  />

  <text
    x="256"
    y="268"
    text-anchor="middle"
    font-family="Inter, system-ui, -apple-system, sans-serif"
    font-size="148"
    font-weight="900"
    fill="#ffffff"
    letter-spacing="-0.04em"
  >S</text>
</svg>
